<svg xmlns="http://www.w3.org/2000/svg" xmlns:xlink="http://www.w3.org/1999/xlink" width="1458" zoomAndPan="magnify" viewBox="0 0 1093.5 1060.499969" height="1414" preserveAspectRatio="xMidYMid meet" version="1.0"><defs><g/></defs><g fill="#fa6602" fill-opacity="1"><g transform="translate(194.658839, 519.289987)"><g><path d="M 6.40625 0 L 124.46875 -264.03125 L 253.09375 -264.03125 L 370.78125 0 L 273.453125 0 L 251.96875 -50.171875 L 125.609375 -50.171875 L 103.71875 0 Z M 150.5 -112.78125 L 226.6875 -112.78125 L 188.59375 -201.046875 Z M 150.5 -112.78125 "/></g></g></g><g fill="#fa6602" fill-opacity="1"><g transform="translate(572.216091, 519.289987)"><g><path d="M 10.1875 0 L 10.1875 -264.03125 L 217.640625 -264.03125 C 237.753906 -264.03125 255.351562 -259.816406 270.4375 -251.390625 C 285.53125 -242.972656 297.347656 -231.28125 305.890625 -216.3125 C 314.441406 -201.351562 318.71875 -184.066406 318.71875 -164.453125 C 318.71875 -144.835938 314.441406 -127.546875 305.890625 -112.578125 C 297.347656 -97.617188 285.53125 -85.863281 270.4375 -77.3125 C 255.351562 -68.769531 237.753906 -64.5 217.640625 -64.5 L 98.828125 -64.5 L 98.828125 0 Z M 98.828125 -139.1875 L 198.78125 -139.1875 C 203.300781 -139.1875 208.015625 -139.5625 212.921875 -140.3125 C 217.828125 -141.0625 221.976562 -143.195312 225.375 -146.71875 C 228.769531 -150.238281 230.46875 -156.148438 230.46875 -164.453125 C 230.46875 -172.753906 228.769531 -178.664062 225.375 -182.1875 C 221.976562 -185.707031 217.828125 -187.78125 212.921875 -188.40625 C 208.015625 -189.03125 203.300781 -189.34375 198.78125 -189.34375 L 98.828125 -189.34375 Z M 98.828125 -139.1875 "/></g></g></g><g fill="#fa6602" fill-opacity="1"><g transform="translate(202.191921, 820.432292)"><g><path d="M 172.375 3.765625 C 114.289062 3.765625 72.109375 -7.609375 45.828125 -30.359375 C 19.546875 -53.117188 6.40625 -87.128906 6.40625 -132.390625 C 6.40625 -177.398438 19.546875 -211.21875 45.828125 -233.84375 C 72.109375 -256.476562 114.289062 -267.796875 172.375 -267.796875 C 225.175781 -267.796875 265.21875 -258.113281 292.5 -238.75 C 319.789062 -219.394531 334.691406 -189.472656 337.203125 -148.984375 L 247.0625 -148.984375 C 244.789062 -164.078125 237.554688 -175.207031 225.359375 -182.375 C 213.171875 -189.539062 195.507812 -193.125 172.375 -193.125 C 152.007812 -193.125 136.226562 -190.609375 125.03125 -185.578125 C 113.84375 -180.546875 106.046875 -173.441406 101.640625 -164.265625 C 97.242188 -155.085938 95.046875 -144.460938 95.046875 -132.390625 C 95.046875 -120.316406 97.242188 -109.628906 101.640625 -100.328125 C 106.046875 -91.023438 113.84375 -83.796875 125.03125 -78.640625 C 136.226562 -73.484375 152.007812 -70.90625 172.375 -70.90625 C 195.507812 -70.90625 213.171875 -74.550781 225.359375 -81.84375 C 237.554688 -89.132812 244.789062 -100.453125 247.0625 -115.796875 L 337.203125 -115.796875 C 334.691406 -75.304688 319.859375 -45.253906 292.703125 -25.640625 C 265.546875 -6.035156 225.4375 3.765625 172.375 3.765625 Z M 172.375 3.765625 "/></g></g></g><g fill="#fa6602" fill-opacity="1"><g transform="translate(546.180174, 820.432292)"><g><path d="M 172.375 3.765625 C 114.289062 3.765625 72.109375 -7.609375 45.828125 -30.359375 C 19.546875 -53.117188 6.40625 -87.128906 6.40625 -132.390625 C 6.40625 -177.398438 19.546875 -211.21875 45.828125 -233.84375 C 72.109375 -256.476562 114.289062 -267.796875 172.375 -267.796875 C 225.175781 -267.796875 265.21875 -258.113281 292.5 -238.75 C 319.789062 -219.394531 334.691406 -189.472656 337.203125 -148.984375 L 247.0625 -148.984375 C 244.789062 -164.078125 237.554688 -175.207031 225.359375 -182.375 C 213.171875 -189.539062 195.507812 -193.125 172.375 -193.125 C 152.007812 -193.125 136.226562 -190.609375 125.03125 -185.578125 C 113.84375 -180.546875 106.046875 -173.441406 101.640625 -164.265625 C 97.242188 -155.085938 95.046875 -144.460938 95.046875 -132.390625 C 95.046875 -120.316406 97.242188 -109.628906 101.640625 -100.328125 C 106.046875 -91.023438 113.84375 -83.796875 125.03125 -78.640625 C 136.226562 -73.484375 152.007812 -70.90625 172.375 -70.90625 C 195.507812 -70.90625 213.171875 -74.550781 225.359375 -81.84375 C 237.554688 -89.132812 244.789062 -100.453125 247.0625 -115.796875 L 337.203125 -115.796875 C 334.691406 -75.304688 319.859375 -45.253906 292.703125 -25.640625 C 265.546875 -6.035156 225.4375 3.765625 172.375 3.765625 Z M 172.375 3.765625 "/></g></g></g><g fill="#000000" fill-opacity="1"><g transform="translate(387.243826, 866.140926)"><g><path d="M 0.625 0 L 12.203125 -25.90625 L 24.828125 -25.90625 L 36.375 0 L 26.828125 0 L 24.71875 -4.921875 L 12.328125 -4.921875 L 10.171875 0 Z M 14.765625 -11.0625 L 22.234375 -11.0625 L 18.5 -19.71875 Z M 14.765625 -11.0625 "/></g></g></g><g fill="#000000" fill-opacity="1"><g transform="translate(424.281475, 866.140926)"><g><path d="M 1 -23.828125 L 1 -29.59375 L 9.0625 -29.59375 L 9.0625 -23.828125 Z M 1 0 L 1 -22.046875 L 9.0625 -22.046875 L 9.0625 0 Z M 1 0 "/></g></g></g><g fill="#000000" fill-opacity="1"><g transform="translate(434.382652, 866.140926)"><g><path d="M 1 0 L 1 -29.59375 L 9.0625 -29.59375 L 9.0625 -13.546875 L 21.234375 -22.046875 L 34 -22.046875 L 21.234375 -12.953125 L 34 0 L 23.390625 0 L 14.984375 -8.734375 L 9.0625 -4.703125 L 9.0625 0 Z M 1 0 "/></g></g></g><g fill="#000000" fill-opacity="1"><g transform="translate(469.052258, 866.140926)"><g><path d="M 15.71875 0.375 C 12.632812 0.375 9.957031 -0.00390625 7.6875 -0.765625 C 5.425781 -1.535156 3.679688 -2.757812 2.453125 -4.4375 C 1.234375 -6.113281 0.625 -8.3125 0.625 -11.03125 C 0.625 -13.738281 1.234375 -15.929688 2.453125 -17.609375 C 3.679688 -19.285156 5.425781 -20.503906 7.6875 -21.265625 C 9.957031 -22.035156 12.632812 -22.421875 15.71875 -22.421875 C 18.832031 -22.421875 21.515625 -22.035156 23.765625 -21.265625 C 26.023438 -20.503906 27.765625 -19.285156 28.984375 -17.609375 C 30.210938 -15.929688 30.828125 -13.738281 30.828125 -11.03125 C 30.828125 -8.3125 30.210938 -6.113281 28.984375 -4.4375 C 27.765625 -2.757812 26.023438 -1.535156 23.765625 -0.765625 C 21.515625 -0.00390625 18.832031 0.375 15.71875 0.375 Z M 15.71875 -6.359375 C 18.019531 -6.359375 19.765625 -6.675781 20.953125 -7.3125 C 22.148438 -7.957031 22.75 -9.195312 22.75 -11.03125 C 22.75 -12.851562 22.148438 -14.085938 20.953125 -14.734375 C 19.765625 -15.390625 18.019531 -15.71875 15.71875 -15.71875 C 13.457031 -15.71875 11.71875 -15.390625 10.5 -14.734375 C 9.289062 -14.085938 8.6875 -12.851562 8.6875 -11.03125 C 8.6875 -9.195312 9.289062 -7.957031 10.5 -7.3125 C 11.71875 -6.675781 13.457031 -6.359375 15.71875 -6.359375 Z M 15.71875 -6.359375 "/></g></g></g><g fill="#000000" fill-opacity="1"><g transform="translate(500.539803, 866.140926)"><g/></g></g><g fill="#000000" fill-opacity="1"><g transform="translate(516.006074, 866.140926)"><g><path d="M 1 0 L 1 -25.90625 L 21.34375 -25.90625 C 23.320312 -25.90625 25.050781 -25.488281 26.53125 -24.65625 C 28.007812 -23.832031 29.164062 -22.6875 30 -21.21875 C 30.84375 -19.75 31.265625 -18.050781 31.265625 -16.125 C 31.265625 -14.207031 30.84375 -12.515625 30 -11.046875 C 29.164062 -9.578125 28.007812 -8.421875 26.53125 -7.578125 C 25.050781 -6.742188 23.320312 -6.328125 21.34375 -6.328125 L 9.6875 -6.328125 L 9.6875 0 Z M 9.6875 -13.65625 L 19.5 -13.65625 C 19.945312 -13.65625 20.410156 -13.691406 20.890625 -13.765625 C 21.367188 -13.835938 21.773438 -14.046875 22.109375 -14.390625 C 22.441406 -14.734375 22.609375 -15.3125 22.609375 -16.125 C 22.609375 -16.945312 22.441406 -17.53125 22.109375 -17.875 C 21.773438 -18.21875 21.367188 -18.421875 20.890625 -18.484375 C 20.410156 -18.546875 19.945312 -18.578125 19.5 -18.578125 L 9.6875 -18.578125 Z M 9.6875 -13.65625 "/></g></g></g><g fill="#000000" fill-opacity="1"><g transform="translate(547.937634, 866.140926)"><g><path d="M 16.90625 0.375 C 11.207031 0.375 7.066406 -0.738281 4.484375 -2.96875 C 1.910156 -5.207031 0.625 -8.546875 0.625 -12.984375 C 0.625 -17.398438 1.910156 -20.71875 4.484375 -22.9375 C 7.066406 -25.15625 11.207031 -26.265625 16.90625 -26.265625 C 22.082031 -26.265625 26.007812 -25.316406 28.6875 -23.421875 C 31.363281 -21.523438 32.828125 -18.585938 33.078125 -14.609375 L 24.234375 -14.609375 C 24.015625 -16.085938 23.304688 -17.175781 22.109375 -17.875 C 20.910156 -18.582031 19.175781 -18.9375 16.90625 -18.9375 C 14.90625 -18.9375 13.359375 -18.691406 12.265625 -18.203125 C 11.171875 -17.710938 10.40625 -17.015625 9.96875 -16.109375 C 9.539062 -15.210938 9.328125 -14.171875 9.328125 -12.984375 C 9.328125 -11.804688 9.539062 -10.757812 9.96875 -9.84375 C 10.40625 -8.925781 11.171875 -8.210938 12.265625 -7.703125 C 13.359375 -7.203125 14.90625 -6.953125 16.90625 -6.953125 C 19.175781 -6.953125 20.910156 -7.3125 22.109375 -8.03125 C 23.304688 -8.75 24.015625 -9.859375 24.234375 -11.359375 L 33.078125 -11.359375 C 32.828125 -7.390625 31.367188 -4.441406 28.703125 -2.515625 C 26.046875 -0.585938 22.113281 0.375 16.90625 0.375 Z M 16.90625 0.375 "/></g></g></g><g fill="#000000" fill-opacity="1"><g transform="translate(581.68222, 866.140926)"><g/></g></g><g fill="#000000" fill-opacity="1"><g transform="translate(597.148479, 866.140926)"><g><path d="M 16.90625 0.375 C 11.207031 0.375 7.066406 -0.738281 4.484375 -2.96875 C 1.910156 -5.207031 0.625 -8.546875 0.625 -12.984375 C 0.625 -17.398438 1.910156 -20.71875 4.484375 -22.9375 C 7.066406 -25.15625 11.207031 -26.265625 16.90625 -26.265625 C 22.082031 -26.265625 26.007812 -25.316406 28.6875 -23.421875 C 31.363281 -21.523438 32.828125 -18.585938 33.078125 -14.609375 L 24.234375 -14.609375 C 24.015625 -16.085938 23.304688 -17.175781 22.109375 -17.875 C 20.910156 -18.582031 19.175781 -18.9375 16.90625 -18.9375 C 14.90625 -18.9375 13.359375 -18.691406 12.265625 -18.203125 C 11.171875 -17.710938 10.40625 -17.015625 9.96875 -16.109375 C 9.539062 -15.210938 9.328125 -14.171875 9.328125 -12.984375 C 9.328125 -11.804688 9.539062 -10.757812 9.96875 -9.84375 C 10.40625 -8.925781 11.171875 -8.210938 12.265625 -7.703125 C 13.359375 -7.203125 14.90625 -6.953125 16.90625 -6.953125 C 19.175781 -6.953125 20.910156 -7.3125 22.109375 -8.03125 C 23.304688 -8.75 24.015625 -9.859375 24.234375 -11.359375 L 33.078125 -11.359375 C 32.828125 -7.390625 31.367188 -4.441406 28.703125 -2.515625 C 26.046875 -0.585938 22.113281 0.375 16.90625 0.375 Z M 16.90625 0.375 "/></g></g></g><g fill="#000000" fill-opacity="1"><g transform="translate(630.893053, 866.140926)"><g><path d="M 1 0 L 1 -29.59375 L 9.0625 -29.59375 L 9.0625 0 Z M 1 0 "/></g></g></g><g fill="#000000" fill-opacity="1"><g transform="translate(640.99423, 866.140926)"><g><path d="M 11.875 0.375 C 10.570312 0.375 9.273438 0.238281 7.984375 -0.03125 C 6.703125 -0.300781 5.535156 -0.78125 4.484375 -1.46875 C 3.441406 -2.164062 2.597656 -3.15625 1.953125 -4.4375 C 1.316406 -5.71875 1 -7.359375 1 -9.359375 L 1.03125 -22.046875 L 9.109375 -22.046875 L 9.109375 -12.609375 C 9.109375 -10.585938 9.53125 -9.085938 10.375 -8.109375 C 11.226562 -7.140625 12.738281 -6.65625 14.90625 -6.65625 C 15.96875 -6.65625 17.019531 -6.800781 18.0625 -7.09375 C 19.113281 -7.394531 20.085938 -7.804688 20.984375 -8.328125 C 21.890625 -8.847656 22.640625 -9.414062 23.234375 -10.03125 L 23.234375 -22.046875 L 31.296875 -22.046875 L 31.296875 0 L 23.234375 0 L 23.234375 -3.21875 C 21.828125 -2.207031 20.1875 -1.351562 18.3125 -0.65625 C 16.4375 0.03125 14.289062 0.375 11.875 0.375 Z M 11.875 0.375 "/></g></g></g><g fill="#000000" fill-opacity="1"><g transform="translate(673.295795, 866.140926)"><g><path d="M 18.796875 0.375 C 16.867188 0.375 15.0625 0.09375 13.375 -0.46875 C 11.6875 -1.039062 10.25 -1.929688 9.0625 -3.140625 L 9.0625 0 L 1 0 L 1 -29.59375 L 9.0625 -29.59375 L 9.0625 -18.90625 C 10.25 -20.113281 11.6875 -21 13.375 -21.5625 C 15.0625 -22.132812 16.867188 -22.421875 18.796875 -22.421875 C 20.328125 -22.421875 21.832031 -22.234375 23.3125 -21.859375 C 24.789062 -21.492188 26.117188 -20.878906 27.296875 -20.015625 C 28.484375 -19.148438 29.425781 -17.984375 30.125 -16.515625 C 30.832031 -15.046875 31.1875 -13.21875 31.1875 -11.03125 C 31.1875 -8.851562 30.832031 -7.03125 30.125 -5.5625 C 29.425781 -4.09375 28.484375 -2.921875 27.296875 -2.046875 C 26.117188 -1.171875 24.789062 -0.546875 23.3125 -0.171875 C 21.832031 0.191406 20.328125 0.375 18.796875 0.375 Z M 16.09375 -6.359375 C 18.363281 -6.359375 20.101562 -6.6875 21.3125 -7.34375 C 22.519531 -8 23.125 -9.226562 23.125 -11.03125 C 23.125 -12.832031 22.519531 -14.0625 21.3125 -14.71875 C 20.101562 -15.382812 18.363281 -15.71875 16.09375 -15.71875 C 13.851562 -15.71875 12.117188 -15.382812 10.890625 -14.71875 C 9.671875 -14.0625 9.0625 -12.832031 9.0625 -11.03125 C 9.0625 -9.226562 9.671875 -8 10.890625 -7.34375 C 12.117188 -6.6875 13.851562 -6.359375 16.09375 -6.359375 Z M 16.09375 -6.359375 "/></g></g></g></svg>