<?xml version="1.0" standalone="no"?>
<!DOCTYPE svg PUBLIC "-//W3C//DTD SVG 20010904//EN"
 "http://www.w3.org/TR/2001/REC-SVG-20010904/DTD/svg10.dtd">
<svg version="1.0" xmlns="http://www.w3.org/2000/svg"
 width="2593.000000pt" height="1428.000000pt" viewBox="0 0 2593.000000 1428.000000"
 preserveAspectRatio="xMidYMid meet">

<g transform="translate(0.000000,1428.000000) scale(0.100000,-0.100000)"
fill="#000000" stroke="none">
<path d="M10675 13560 l-240 -240 -4145 0 -4145 0 -240 -240 -240 -240 240
-240 240 -240 3900 0 3900 0 240 240 240 240 3905 2 3905 1 235 239 235 238
-235 238 -235 239 -3660 1 -3660 2 -240 -240z"/>
<path d="M20960 12912 l0 -687 653 -653 652 -652 1498 0 1497 0 0 1340 0 1340
-2150 0 -2150 0 0 -688z m1200 291 l0 -338 602 -602 603 -603 917 0 918 0 0
-340 0 -340 -1447 0 -1448 0 -642 642 -643 643 0 637 0 638 570 0 570 0 0
-337z"/>
<path d="M18725 13000 l-320 -320 -3905 0 -3905 0 -240 -240 -240 -240 -3987
0 -3988 0 0 -1603 0 -1602 -400 -400 -400 -400 0 -2555 0 -2555 803 -803 802
-802 10555 0 10555 0 403 403 402 402 0 4158 0 4157 -1383 0 -1382 0 -728 728
-727 727 0 633 0 632 -798 0 -797 0 -320 -320z"/>
<path d="M937 12112 l-397 -397 0 -1195 0 -1195 400 -400 400 -400 160 160
160 160 0 1675 0 1675 -158 158 c-86 86 -159 157 -162 157 -3 0 -184 -179
-403 -398z"/>
<path d="M1340 2550 l0 -325 773 -773 772 -772 10185 0 10185 0 80 80 80 80
-10020 0 -10020 0 -1017 1017 -1018 1018 0 -325z"/>
</g>
</svg>
