<?xml version="1.0" standalone="no"?>
<!DOCTYPE svg PUBLIC "-//W3C//DTD SVG 20010904//EN"
 "http://www.w3.org/TR/2001/REC-SVG-20010904/DTD/svg10.dtd">
<svg version="1.0" xmlns="http://www.w3.org/2000/svg"
 width="3840.000000pt" height="316.000000pt" viewBox="0 0 3840.000000 316.000000"
 preserveAspectRatio="xMidYMid meet">

<g transform="translate(0.000000,316.000000) scale(0.100000,-0.100000)"
fill="#000000" stroke="none">
<path d="M0 2480 l0 -680 123 0 122 0 100 -200 100 -200 4827 0 4828 0 -180
-360 -180 -360 -4590 0 -4590 0 -279 558 -280 557 0 -198 -1 -197 200 -400
200 -400 4760 0 4760 0 200 400 200 400 13360 0 13360 0 200 400 200 400 380
0 380 0 100 200 100 200 0 280 0 280 -19200 0 -19200 0 0 -680z"/>
<path d="M37540 1680 l-180 -360 -13478 0 -13477 0 -183 -360 -184 -360 13701
0 13701 0 360 720 360 720 -220 0 -220 0 -180 -360z"/>
</g>
</svg>
